<mxfile host="65bd71144e">
    <diagram id="DMFVCBCUEzB3HmH3Ep9_" name="第 1 页">
        <mxGraphModel dx="2533" dy="941" grid="1" gridSize="10" guides="1" tooltips="1" connect="1" arrows="1" fold="1" page="1" pageScale="1" pageWidth="827" pageHeight="1169" math="0" shadow="0">
            <root>
                <mxCell id="0"/>
                <mxCell id="1" parent="0"/>
                <mxCell id="44" style="endArrow=none;html=1;" parent="1" source="2" target="18" edge="1">
                    <mxGeometry relative="1" as="geometry"/>
                </mxCell>
                <mxCell id="45" style="endArrow=none;html=1;" parent="1" source="2" target="24" edge="1">
                    <mxGeometry relative="1" as="geometry"/>
                </mxCell>
                <mxCell id="48" style="endArrow=none;html=1;" parent="1" source="2" target="23" edge="1">
                    <mxGeometry relative="1" as="geometry"/>
                </mxCell>
                <mxCell id="49" style="endArrow=none;html=1;" parent="1" source="2" target="17" edge="1">
                    <mxGeometry relative="1" as="geometry"/>
                </mxCell>
                <mxCell id="50" style="endArrow=none;html=1;" parent="1" source="2" target="16" edge="1">
                    <mxGeometry relative="1" as="geometry"/>
                </mxCell>
                <mxCell id="51" style="endArrow=none;html=1;" parent="1" source="2" target="25" edge="1">
                    <mxGeometry relative="1" as="geometry"/>
                </mxCell>
                <mxCell id="74" style="endArrow=none;html=1;" parent="1" source="2" target="28" edge="1">
                    <mxGeometry relative="1" as="geometry"/>
                </mxCell>
                <mxCell id="76" style="endArrow=none;html=1;" parent="1" source="2" target="75" edge="1">
                    <mxGeometry relative="1" as="geometry"/>
                </mxCell>
                <mxCell id="175" value="1" style="edgeLabel;html=1;align=center;verticalAlign=middle;resizable=0;points=[];" vertex="1" connectable="0" parent="76">
                    <mxGeometry x="-0.6692" y="2" relative="1" as="geometry">
                        <mxPoint x="1" as="offset"/>
                    </mxGeometry>
                </mxCell>
                <mxCell id="2" value="Users" style="rounded=1;whiteSpace=wrap;html=1;fontSize=17;arcSize=0;" parent="1" vertex="1">
                    <mxGeometry x="90" y="180" width="90" height="40" as="geometry"/>
                </mxCell>
                <mxCell id="16" value="Email" style="ellipse;whiteSpace=wrap;html=1;" parent="1" vertex="1">
                    <mxGeometry x="90" y="270" width="90" height="40" as="geometry"/>
                </mxCell>
                <mxCell id="17" value="&lt;u&gt;UserID&lt;/u&gt;" style="ellipse;whiteSpace=wrap;html=1;" parent="1" vertex="1">
                    <mxGeometry x="-50" y="160" width="90" height="40" as="geometry"/>
                </mxCell>
                <mxCell id="18" value="Username" style="ellipse;whiteSpace=wrap;html=1;" parent="1" vertex="1">
                    <mxGeometry x="-20" y="90" width="90" height="40" as="geometry"/>
                </mxCell>
                <mxCell id="23" value="CreatedAt" style="ellipse;whiteSpace=wrap;html=1;" parent="1" vertex="1">
                    <mxGeometry x="-70" y="220" width="90" height="40" as="geometry"/>
                </mxCell>
                <mxCell id="24" value="Role" style="ellipse;whiteSpace=wrap;html=1;" parent="1" vertex="1">
                    <mxGeometry x="90" y="80" width="90" height="40" as="geometry"/>
                </mxCell>
                <mxCell id="25" value="PasswordHash" style="ellipse;whiteSpace=wrap;html=1;" parent="1" vertex="1">
                    <mxGeometry x="200" y="90" width="90" height="40" as="geometry"/>
                </mxCell>
                <mxCell id="28" value="AvatarURL" style="ellipse;whiteSpace=wrap;html=1;" parent="1" vertex="1">
                    <mxGeometry x="-10" y="300" width="90" height="40" as="geometry"/>
                </mxCell>
                <mxCell id="52" style="endArrow=none;html=1;" parent="1" source="59" target="62" edge="1">
                    <mxGeometry relative="1" as="geometry"/>
                </mxCell>
                <mxCell id="53" style="endArrow=none;html=1;" parent="1" source="59" target="64" edge="1">
                    <mxGeometry relative="1" as="geometry"/>
                </mxCell>
                <mxCell id="55" style="endArrow=none;html=1;" parent="1" source="59" target="63" edge="1">
                    <mxGeometry relative="1" as="geometry"/>
                </mxCell>
                <mxCell id="56" style="endArrow=none;html=1;" parent="1" source="59" target="61" edge="1">
                    <mxGeometry relative="1" as="geometry"/>
                </mxCell>
                <mxCell id="58" style="endArrow=none;html=1;" parent="1" source="59" target="65" edge="1">
                    <mxGeometry relative="1" as="geometry"/>
                </mxCell>
                <mxCell id="118" style="endArrow=none;html=1;" parent="1" source="59" target="117" edge="1">
                    <mxGeometry relative="1" as="geometry"/>
                </mxCell>
                <mxCell id="174" value="n&lt;div&gt;&lt;br&gt;&lt;/div&gt;" style="edgeLabel;html=1;align=center;verticalAlign=middle;resizable=0;points=[];" vertex="1" connectable="0" parent="118">
                    <mxGeometry x="-0.4085" y="-3" relative="1" as="geometry">
                        <mxPoint as="offset"/>
                    </mxGeometry>
                </mxCell>
                <mxCell id="59" value="Comment" style="rounded=1;whiteSpace=wrap;html=1;fontSize=17;arcSize=0;" parent="1" vertex="1">
                    <mxGeometry x="460" y="170" width="90" height="40" as="geometry"/>
                </mxCell>
                <mxCell id="61" value="Content" style="ellipse;whiteSpace=wrap;html=1;" parent="1" vertex="1">
                    <mxGeometry x="640" y="120" width="90" height="40" as="geometry"/>
                </mxCell>
                <mxCell id="62" value="&lt;u&gt;CommentID&lt;/u&gt;" style="ellipse;whiteSpace=wrap;html=1;" parent="1" vertex="1">
                    <mxGeometry x="350" y="80" width="90" height="40" as="geometry"/>
                </mxCell>
                <mxCell id="63" value="CreatedAt" style="ellipse;whiteSpace=wrap;html=1;" parent="1" vertex="1">
                    <mxGeometry x="640" y="190" width="90" height="40" as="geometry"/>
                </mxCell>
                <mxCell id="64" value="MovieID" style="ellipse;whiteSpace=wrap;html=1;" parent="1" vertex="1">
                    <mxGeometry x="460" y="70" width="90" height="40" as="geometry"/>
                </mxCell>
                <mxCell id="65" value="UserID" style="ellipse;whiteSpace=wrap;html=1;" parent="1" vertex="1">
                    <mxGeometry x="570" y="80" width="90" height="40" as="geometry"/>
                </mxCell>
                <mxCell id="77" style="endArrow=none;html=1;" parent="1" source="75" target="59" edge="1">
                    <mxGeometry relative="1" as="geometry"/>
                </mxCell>
                <mxCell id="176" value="n&lt;div&gt;&lt;br&gt;&lt;/div&gt;" style="edgeLabel;html=1;align=center;verticalAlign=middle;resizable=0;points=[];" vertex="1" connectable="0" parent="77">
                    <mxGeometry x="0.534" y="-2" relative="1" as="geometry">
                        <mxPoint x="1" as="offset"/>
                    </mxGeometry>
                </mxCell>
                <mxCell id="75" value="发表" style="rhombus;whiteSpace=wrap;html=1;" parent="1" vertex="1">
                    <mxGeometry x="290" y="180" width="80" height="40" as="geometry"/>
                </mxCell>
                <mxCell id="94" style="endArrow=none;html=1;" parent="1" source="102" target="105" edge="1">
                    <mxGeometry relative="1" as="geometry"/>
                </mxCell>
                <mxCell id="95" style="endArrow=none;html=1;" parent="1" source="102" target="107" edge="1">
                    <mxGeometry relative="1" as="geometry"/>
                </mxCell>
                <mxCell id="96" style="endArrow=none;html=1;" parent="1" source="102" target="106" edge="1">
                    <mxGeometry relative="1" as="geometry"/>
                </mxCell>
                <mxCell id="97" style="endArrow=none;html=1;" parent="1" source="102" target="104" edge="1">
                    <mxGeometry relative="1" as="geometry"/>
                </mxCell>
                <mxCell id="98" style="endArrow=none;html=1;" parent="1" source="102" target="103" edge="1">
                    <mxGeometry relative="1" as="geometry"/>
                </mxCell>
                <mxCell id="99" style="endArrow=none;html=1;" parent="1" source="102" target="108" edge="1">
                    <mxGeometry relative="1" as="geometry"/>
                </mxCell>
                <mxCell id="100" style="endArrow=none;html=1;" parent="1" source="102" target="109" edge="1">
                    <mxGeometry relative="1" as="geometry"/>
                </mxCell>
                <mxCell id="101" style="endArrow=none;html=1;" parent="1" source="102" target="114" edge="1">
                    <mxGeometry relative="1" as="geometry">
                        <mxPoint x="490" y="450" as="targetPoint"/>
                    </mxGeometry>
                </mxCell>
                <mxCell id="112" style="endArrow=none;html=1;" parent="1" source="102" target="110" edge="1">
                    <mxGeometry relative="1" as="geometry"/>
                </mxCell>
                <mxCell id="113" style="endArrow=none;html=1;" parent="1" source="102" target="111" edge="1">
                    <mxGeometry relative="1" as="geometry"/>
                </mxCell>
                <mxCell id="116" style="endArrow=none;html=1;" parent="1" source="102" target="115" edge="1">
                    <mxGeometry relative="1" as="geometry"/>
                </mxCell>
                <mxCell id="155" style="endArrow=none;html=1;" edge="1" parent="1" source="102" target="153">
                    <mxGeometry relative="1" as="geometry"/>
                </mxCell>
                <mxCell id="169" value="n&lt;div&gt;&lt;br&gt;&lt;/div&gt;" style="edgeLabel;html=1;align=center;verticalAlign=middle;resizable=0;points=[];" vertex="1" connectable="0" parent="155">
                    <mxGeometry x="-0.7743" y="2" relative="1" as="geometry">
                        <mxPoint as="offset"/>
                    </mxGeometry>
                </mxCell>
                <mxCell id="201" style="endArrow=none;edgeStyle=none;html=1;entryX=1;entryY=0.5;entryDx=0;entryDy=0;" edge="1" parent="1" source="102" target="199">
                    <mxGeometry relative="1" as="geometry"/>
                </mxCell>
                <mxCell id="202" value="1" style="edgeLabel;html=1;align=center;verticalAlign=middle;resizable=0;points=[];" vertex="1" connectable="0" parent="201">
                    <mxGeometry x="-0.8076" y="3" relative="1" as="geometry">
                        <mxPoint x="1" as="offset"/>
                    </mxGeometry>
                </mxCell>
                <mxCell id="102" value="Movies" style="rounded=1;whiteSpace=wrap;html=1;fontSize=17;arcSize=0;" parent="1" vertex="1">
                    <mxGeometry x="290" y="430" width="90" height="40" as="geometry"/>
                </mxCell>
                <mxCell id="103" value="Country" style="ellipse;whiteSpace=wrap;html=1;" parent="1" vertex="1">
                    <mxGeometry x="260" y="550" width="90" height="40" as="geometry"/>
                </mxCell>
                <mxCell id="104" value="Duration" style="ellipse;whiteSpace=wrap;html=1;" parent="1" vertex="1">
                    <mxGeometry x="150" y="410" width="90" height="40" as="geometry"/>
                </mxCell>
                <mxCell id="105" value="&lt;u&gt;MovieID&lt;/u&gt;" style="ellipse;whiteSpace=wrap;html=1;" parent="1" vertex="1">
                    <mxGeometry x="170" y="360" width="90" height="40" as="geometry"/>
                </mxCell>
                <mxCell id="106" value="Genre" style="ellipse;whiteSpace=wrap;html=1;" parent="1" vertex="1">
                    <mxGeometry x="160" y="465" width="90" height="40" as="geometry"/>
                </mxCell>
                <mxCell id="107" value="Title" style="ellipse;whiteSpace=wrap;html=1;" parent="1" vertex="1">
                    <mxGeometry x="270" y="340" width="90" height="40" as="geometry"/>
                </mxCell>
                <mxCell id="119" style="endArrow=none;html=1;" parent="1" source="108" target="117" edge="1">
                    <mxGeometry relative="1" as="geometry"/>
                </mxCell>
                <mxCell id="173" value="1" style="edgeLabel;html=1;align=center;verticalAlign=middle;resizable=0;points=[];" vertex="1" connectable="0" parent="119">
                    <mxGeometry x="-0.4779" y="1" relative="1" as="geometry">
                        <mxPoint y="-1" as="offset"/>
                    </mxGeometry>
                </mxCell>
                <mxCell id="108" value="ReleaseYear" style="ellipse;whiteSpace=wrap;html=1;" parent="1" vertex="1">
                    <mxGeometry x="370" y="350" width="90" height="40" as="geometry"/>
                </mxCell>
                <mxCell id="109" value="Language" style="ellipse;whiteSpace=wrap;html=1;" parent="1" vertex="1">
                    <mxGeometry x="180" y="520" width="90" height="40" as="geometry"/>
                </mxCell>
                <mxCell id="110" value="Synopsis" style="ellipse;whiteSpace=wrap;html=1;" parent="1" vertex="1">
                    <mxGeometry x="350" y="580" width="90" height="40" as="geometry"/>
                </mxCell>
                <mxCell id="111" value="AverageRating" style="ellipse;whiteSpace=wrap;html=1;" parent="1" vertex="1">
                    <mxGeometry x="380" y="530" width="90" height="40" as="geometry"/>
                </mxCell>
                <mxCell id="114" value="CoverURL" style="ellipse;whiteSpace=wrap;html=1;" parent="1" vertex="1">
                    <mxGeometry x="480" y="370" width="90" height="40" as="geometry"/>
                </mxCell>
                <mxCell id="115" value="RatingCount" style="ellipse;whiteSpace=wrap;html=1;" parent="1" vertex="1">
                    <mxGeometry x="500" y="420" width="90" height="40" as="geometry"/>
                </mxCell>
                <mxCell id="117" value="拥有" style="rhombus;whiteSpace=wrap;html=1;" parent="1" vertex="1">
                    <mxGeometry x="465" y="270" width="80" height="40" as="geometry"/>
                </mxCell>
                <mxCell id="120" style="endArrow=none;html=1;" parent="1" source="128" target="131" edge="1">
                    <mxGeometry relative="1" as="geometry"/>
                </mxCell>
                <mxCell id="121" style="endArrow=none;html=1;" parent="1" source="128" target="133" edge="1">
                    <mxGeometry relative="1" as="geometry"/>
                </mxCell>
                <mxCell id="122" style="endArrow=none;html=1;" parent="1" source="128" target="132" edge="1">
                    <mxGeometry relative="1" as="geometry"/>
                </mxCell>
                <mxCell id="123" style="endArrow=none;html=1;" parent="1" source="128" target="130" edge="1">
                    <mxGeometry relative="1" as="geometry"/>
                </mxCell>
                <mxCell id="124" style="endArrow=none;html=1;" parent="1" source="128" target="129" edge="1">
                    <mxGeometry relative="1" as="geometry"/>
                </mxCell>
                <mxCell id="126" style="endArrow=none;html=1;" parent="1" source="128" target="135" edge="1">
                    <mxGeometry relative="1" as="geometry"/>
                </mxCell>
                <mxCell id="127" style="endArrow=none;html=1;" parent="1" source="128" edge="1" target="153">
                    <mxGeometry relative="1" as="geometry">
                        <mxPoint x="140" y="800" as="targetPoint"/>
                    </mxGeometry>
                </mxCell>
                <mxCell id="170" value="m&lt;div&gt;&lt;br&gt;&lt;/div&gt;" style="edgeLabel;html=1;align=center;verticalAlign=middle;resizable=0;points=[];" vertex="1" connectable="0" parent="127">
                    <mxGeometry x="-0.6313" y="-3" relative="1" as="geometry">
                        <mxPoint as="offset"/>
                    </mxGeometry>
                </mxCell>
                <mxCell id="128" value="Directors" style="rounded=1;whiteSpace=wrap;html=1;fontSize=17;arcSize=0;" parent="1" vertex="1">
                    <mxGeometry x="10" y="730" width="90" height="40" as="geometry"/>
                </mxCell>
                <mxCell id="129" value="Nationality" style="ellipse;whiteSpace=wrap;html=1;" parent="1" vertex="1">
                    <mxGeometry x="10" y="820" width="90" height="40" as="geometry"/>
                </mxCell>
                <mxCell id="130" value="&lt;u&gt;DirctorID&lt;/u&gt;" style="ellipse;whiteSpace=wrap;html=1;" parent="1" vertex="1">
                    <mxGeometry x="-130" y="710" width="90" height="40" as="geometry"/>
                </mxCell>
                <mxCell id="131" value="Gender" style="ellipse;whiteSpace=wrap;html=1;" parent="1" vertex="1">
                    <mxGeometry x="-100" y="640" width="90" height="40" as="geometry"/>
                </mxCell>
                <mxCell id="132" value="Name" style="ellipse;whiteSpace=wrap;html=1;" parent="1" vertex="1">
                    <mxGeometry x="-150" y="770" width="90" height="40" as="geometry"/>
                </mxCell>
                <mxCell id="133" value="BirthDay" style="ellipse;whiteSpace=wrap;html=1;" parent="1" vertex="1">
                    <mxGeometry x="10" y="630" width="90" height="40" as="geometry"/>
                </mxCell>
                <mxCell id="135" value="PhotoURL" style="ellipse;whiteSpace=wrap;html=1;" parent="1" vertex="1">
                    <mxGeometry x="-110" y="830" width="90" height="40" as="geometry"/>
                </mxCell>
                <mxCell id="136" style="endArrow=none;html=1;" parent="1" source="144" target="147" edge="1">
                    <mxGeometry relative="1" as="geometry"/>
                </mxCell>
                <mxCell id="137" style="endArrow=none;html=1;" parent="1" source="144" target="149" edge="1">
                    <mxGeometry relative="1" as="geometry"/>
                </mxCell>
                <mxCell id="138" style="endArrow=none;html=1;" parent="1" source="144" target="148" edge="1">
                    <mxGeometry relative="1" as="geometry"/>
                </mxCell>
                <mxCell id="139" style="endArrow=none;html=1;" parent="1" source="144" target="146" edge="1">
                    <mxGeometry relative="1" as="geometry"/>
                </mxCell>
                <mxCell id="141" style="endArrow=none;html=1;" parent="1" source="144" target="150" edge="1">
                    <mxGeometry relative="1" as="geometry"/>
                </mxCell>
                <mxCell id="142" style="endArrow=none;html=1;" parent="1" source="144" target="151" edge="1">
                    <mxGeometry relative="1" as="geometry"/>
                </mxCell>
                <mxCell id="156" style="endArrow=none;html=1;" edge="1" parent="1" source="144" target="154">
                    <mxGeometry relative="1" as="geometry"/>
                </mxCell>
                <mxCell id="172" value="n&lt;div&gt;&lt;br&gt;&lt;/div&gt;" style="edgeLabel;html=1;align=center;verticalAlign=middle;resizable=0;points=[];" vertex="1" connectable="0" parent="156">
                    <mxGeometry x="-0.6051" y="1" relative="1" as="geometry">
                        <mxPoint y="1" as="offset"/>
                    </mxGeometry>
                </mxCell>
                <mxCell id="144" value="Actors" style="rounded=1;whiteSpace=wrap;html=1;fontSize=17;arcSize=0;" parent="1" vertex="1">
                    <mxGeometry x="655" y="720" width="95" height="40" as="geometry"/>
                </mxCell>
                <mxCell id="146" value="&lt;u&gt;ActorID&lt;/u&gt;" style="ellipse;whiteSpace=wrap;html=1;" parent="1" vertex="1">
                    <mxGeometry x="570" y="880" width="90" height="40" as="geometry"/>
                </mxCell>
                <mxCell id="147" value="Name" style="ellipse;whiteSpace=wrap;html=1;" parent="1" vertex="1">
                    <mxGeometry x="785" y="850" width="90" height="40" as="geometry"/>
                </mxCell>
                <mxCell id="148" value="Nationality" style="ellipse;whiteSpace=wrap;html=1;" parent="1" vertex="1">
                    <mxGeometry x="875" y="810" width="90" height="40" as="geometry"/>
                </mxCell>
                <mxCell id="149" value="Gender" style="ellipse;whiteSpace=wrap;html=1;" parent="1" vertex="1">
                    <mxGeometry x="895" y="700" width="90" height="40" as="geometry"/>
                </mxCell>
                <mxCell id="150" value="BirthDate" style="ellipse;whiteSpace=wrap;html=1;" parent="1" vertex="1">
                    <mxGeometry x="915" y="770" width="90" height="40" as="geometry"/>
                </mxCell>
                <mxCell id="151" value="PhotoURL" style="ellipse;whiteSpace=wrap;html=1;" parent="1" vertex="1">
                    <mxGeometry x="685" y="900" width="90" height="40" as="geometry"/>
                </mxCell>
                <mxCell id="153" value="MovieDirectors" style="rhombus;whiteSpace=wrap;html=1;" vertex="1" parent="1">
                    <mxGeometry x="165" y="610" width="120" height="50" as="geometry"/>
                </mxCell>
                <mxCell id="154" value="MovieActors" style="rhombus;whiteSpace=wrap;html=1;" vertex="1" parent="1">
                    <mxGeometry x="530" y="590" width="120" height="50" as="geometry"/>
                </mxCell>
                <mxCell id="157" style="endArrow=none;html=1;" edge="1" parent="1" source="154" target="102">
                    <mxGeometry relative="1" as="geometry"/>
                </mxCell>
                <mxCell id="171" value="m&lt;div&gt;&lt;br&gt;&lt;/div&gt;" style="edgeLabel;html=1;align=center;verticalAlign=middle;resizable=0;points=[];" vertex="1" connectable="0" parent="157">
                    <mxGeometry x="0.7955" y="-1" relative="1" as="geometry">
                        <mxPoint as="offset"/>
                    </mxGeometry>
                </mxCell>
                <mxCell id="163" style="endArrow=none;html=1;" edge="1" parent="1" source="160" target="153">
                    <mxGeometry relative="1" as="geometry"/>
                </mxCell>
                <mxCell id="160" value="&lt;u&gt;MovieID&lt;/u&gt;" style="ellipse;whiteSpace=wrap;html=1;" vertex="1" parent="1">
                    <mxGeometry x="280" y="690" width="90" height="40" as="geometry"/>
                </mxCell>
                <mxCell id="162" style="endArrow=none;html=1;" edge="1" parent="1" source="161" target="153">
                    <mxGeometry relative="1" as="geometry"/>
                </mxCell>
                <mxCell id="161" value="&lt;u&gt;DirctorID&lt;/u&gt;" style="ellipse;whiteSpace=wrap;html=1;" vertex="1" parent="1">
                    <mxGeometry x="40" y="560" width="90" height="40" as="geometry"/>
                </mxCell>
                <mxCell id="167" style="endArrow=none;html=1;" edge="1" parent="1" source="164" target="154">
                    <mxGeometry relative="1" as="geometry"/>
                </mxCell>
                <mxCell id="164" value="&lt;u&gt;DirctorID&lt;/u&gt;" style="ellipse;whiteSpace=wrap;html=1;" vertex="1" parent="1">
                    <mxGeometry x="710" y="540" width="90" height="40" as="geometry"/>
                </mxCell>
                <mxCell id="166" style="endArrow=none;html=1;" edge="1" parent="1" source="165" target="154">
                    <mxGeometry relative="1" as="geometry"/>
                </mxCell>
                <mxCell id="165" value="&lt;u&gt;DirctorID&lt;/u&gt;" style="ellipse;whiteSpace=wrap;html=1;" vertex="1" parent="1">
                    <mxGeometry x="440" y="660" width="90" height="40" as="geometry"/>
                </mxCell>
                <mxCell id="178" style="endArrow=none;html=1;" edge="1" parent="1" source="183" target="187">
                    <mxGeometry relative="1" as="geometry"/>
                </mxCell>
                <mxCell id="179" style="endArrow=none;html=1;" edge="1" parent="1" source="183" target="186">
                    <mxGeometry relative="1" as="geometry"/>
                </mxCell>
                <mxCell id="180" style="endArrow=none;html=1;" edge="1" parent="1" source="183" target="184">
                    <mxGeometry relative="1" as="geometry"/>
                </mxCell>
                <mxCell id="181" style="endArrow=none;html=1;" edge="1" parent="1" source="183" target="188">
                    <mxGeometry relative="1" as="geometry"/>
                </mxCell>
                <mxCell id="196" style="edgeStyle=none;html=1;entryX=1;entryY=1;entryDx=0;entryDy=0;endArrow=none;" edge="1" parent="1" source="183" target="195">
                    <mxGeometry relative="1" as="geometry"/>
                </mxCell>
                <mxCell id="197" value="n" style="edgeLabel;html=1;align=center;verticalAlign=middle;resizable=0;points=[];" vertex="1" connectable="0" parent="196">
                    <mxGeometry x="-0.6292" y="-5" relative="1" as="geometry">
                        <mxPoint as="offset"/>
                    </mxGeometry>
                </mxCell>
                <mxCell id="200" style="edgeStyle=none;html=1;entryX=0;entryY=0.5;entryDx=0;entryDy=0;endArrow=none;" edge="1" parent="1" source="183" target="199">
                    <mxGeometry relative="1" as="geometry"/>
                </mxCell>
                <mxCell id="203" value="n" style="edgeLabel;html=1;align=center;verticalAlign=middle;resizable=0;points=[];" vertex="1" connectable="0" parent="200">
                    <mxGeometry x="-0.6799" relative="1" as="geometry">
                        <mxPoint x="1" as="offset"/>
                    </mxGeometry>
                </mxCell>
                <mxCell id="183" value="Comment" style="rounded=1;whiteSpace=wrap;html=1;fontSize=17;arcSize=0;" vertex="1" parent="1">
                    <mxGeometry x="-287" y="440" width="90" height="40" as="geometry"/>
                </mxCell>
                <mxCell id="184" value="Score" style="ellipse;whiteSpace=wrap;html=1;" vertex="1" parent="1">
                    <mxGeometry x="-497" y="420" width="90" height="40" as="geometry"/>
                </mxCell>
                <mxCell id="186" value="CreatedAt" style="ellipse;whiteSpace=wrap;html=1;" vertex="1" parent="1">
                    <mxGeometry x="-527" y="550" width="90" height="40" as="geometry"/>
                </mxCell>
                <mxCell id="187" value="&lt;u&gt;MovieID&lt;/u&gt;" style="ellipse;whiteSpace=wrap;html=1;" vertex="1" parent="1">
                    <mxGeometry x="-437" y="360" width="90" height="40" as="geometry"/>
                </mxCell>
                <mxCell id="188" value="&lt;u&gt;UserID&lt;/u&gt;" style="ellipse;whiteSpace=wrap;html=1;" vertex="1" parent="1">
                    <mxGeometry x="-550" y="480" width="90" height="40" as="geometry"/>
                </mxCell>
                <mxCell id="189" style="endArrow=none;html=1;exitX=0;exitY=1;exitDx=0;exitDy=0;entryX=0;entryY=0;entryDx=0;entryDy=0;" edge="1" parent="1" target="195" source="2">
                    <mxGeometry relative="1" as="geometry">
                        <mxPoint x="-304" y="458" as="sourcePoint"/>
                        <mxPoint x="-20" y="300" as="targetPoint"/>
                    </mxGeometry>
                </mxCell>
                <mxCell id="191" value="1" style="edgeLabel;html=1;align=center;verticalAlign=middle;resizable=0;points=[];" vertex="1" connectable="0" parent="189">
                    <mxGeometry x="-0.7554" y="4" relative="1" as="geometry">
                        <mxPoint as="offset"/>
                    </mxGeometry>
                </mxCell>
                <mxCell id="195" value="评论" style="rhombus;whiteSpace=wrap;html=1;direction=south;" vertex="1" parent="1">
                    <mxGeometry x="-170" y="330" width="120" height="50" as="geometry"/>
                </mxCell>
                <mxCell id="199" value="拥有" style="rhombus;whiteSpace=wrap;html=1;" vertex="1" parent="1">
                    <mxGeometry x="-50" y="440" width="80" height="40" as="geometry"/>
                </mxCell>
            </root>
        </mxGraphModel>
    </diagram>
</mxfile>